<?xml version="1.0" encoding="UTF-8" standalone="no"?>
<svg
   xmlns:dc="http://purl.org/dc/elements/1.1/"
   xmlns:cc="http://creativecommons.org/ns#"
   xmlns:rdf="http://www.w3.org/1999/02/22-rdf-syntax-ns#"
   xmlns:svg="http://www.w3.org/2000/svg"
   xmlns="http://www.w3.org/2000/svg"
   xml:space="preserve"
   viewBox="0 0 64 64"
   height="64"
   width="64"
   y="0px"
   x="0px"
   id="Capa_1"
   version="1.1"><metadata
     id="metadata19"><rdf:RDF><cc:Work
         rdf:about=""><dc:format>image/svg+xml</dc:format><dc:type
           rdf:resource="http://purl.org/dc/dcmitype/StillImage" /><dc:title></dc:title></cc:Work></rdf:RDF></metadata><defs
     id="defs17" /><g
     transform="translate(0,-33.75)"
     id="g4156"><path
       d="m 30.624409,64.928312 c 0.06613,-0.834783 0.0347,-1.677422 0.04583,-2.516788 -0.07529,-0.01833 -0.149933,-0.03536 -0.225227,-0.05303 -0.381054,1.074414 -0.762762,2.149483 -1.145126,3.232409 1.176553,0.35421 1.247919,0.335877 1.324522,-0.662588 z"
       id="path7"
       style="fill:#e51937;fill-opacity:1" /><path
       d="m 52.552675,68.37089 c 2.582261,-1.336307 3.82756,-4.142486 2.848082,-6.659928 -2.040143,1.768429 -2.344593,4.21647 -2.848082,6.659928 z"
       id="path9"
       style="fill:#e51937;fill-opacity:1" /><path
       d="m 23.091069,65.076936 c -0.01899,-0.909422 -0.03863,-1.763846 -0.05762,-2.617616 -0.07791,-0.01964 -0.155172,-0.03994 -0.233739,-0.05893 -0.216062,0.555212 -0.479919,1.096675 -0.636399,1.668256 -0.259274,0.950015 -0.230466,0.957217 0.927754,1.008286 z"
       id="path11"
       style="fill:#e51937;fill-opacity:1" /><path
       d="m 32,33.75 c -17.672512,0 -32,14.326834 -32,32 0,17.673166 14.327488,32 32,32 17.672512,0 32,-14.326834 32,-32 0,-17.673166 -14.327488,-32 -32,-32 z M 17.35824,71.684486 c -0.4498,0.131601 -0.592532,-0.0419 -0.720859,-0.464205 -0.728716,-2.414649 -1.494752,-4.817514 -2.278465,-7.325135 -0.04256,0.324092 -0.09625,0.590568 -0.108686,0.859662 -0.07726,1.462016 -0.134875,2.92534 -0.219335,4.386701 -0.01899,0.344389 -0.05631,0.717586 -0.201002,1.019417 -0.106067,0.217371 -0.387601,0.4151 -0.629197,0.488429 -0.348972,0.106067 -0.751632,0.03601 -1.100604,0.140768 -0.898946,0.26713 -1.380174,-0.190527 -1.79069,-0.891744 -0.5021795,-0.860972 -1.039714,-1.700338 -1.5628445,-2.549525 -0.036665,0.0026 -0.072675,0.0059 -0.1086854,0.0092 0.1001739,0.777821 0.1872532,1.558261 0.3123069,2.332154 0.070056,0.449146 -0.1086854,0.712348 -0.4995601,0.87734 -0.087079,0.03536 -0.165647,0.08446 -0.2514169,0.117852 C 6.4661279,71.349263 6.1295959,71.11487 5.8526445,69.302573 5.4532583,66.68823 5.5521228,64.066685 5.6444399,61.443831 c 0.00524,-0.150588 0.1748133,-0.362721 0.3195089,-0.428194 0.2933197,-0.131601 0.6180665,-0.20755 0.9382302,-0.259274 1.2832737,-0.212133 1.6178415,-0.0419 2.2149565,1.095366 0.592532,1.132031 1.1778615,2.267335 1.7703935,3.40133 0.08053,0.151898 0.175468,0.297903 0.295284,0.49825 0.265821,-1.256429 0.449146,-2.444767 0.776512,-3.593166 0.310343,-1.087509 0.748358,-2.140972 1.185064,-3.186578 0.07922,-0.189217 0.422956,-0.375161 0.64491,-0.37647 0.625269,-0.0052 1.288512,-0.02553 1.858128,0.180051 0.347663,0.125053 0.680921,0.616102 0.795499,1.007631 0.394148,1.359223 0.701872,2.743325 1.021381,4.123499 0.557831,2.415305 1.096675,4.833883 1.659744,7.319898 -0.513309,0.130946 -1.143816,0.275642 -1.765811,0.458312 z m 3.327346,-0.901565 c -1.187683,-0.759489 -1.664328,-1.726527 -1.643376,-3.060215 0.02422,-1.569391 -0.02292,-3.137473 0.413135,-4.678711 0.348972,-1.240061 1.204051,-2.02443 2.114128,-2.846118 0.908113,-0.81645 1.788726,-0.506107 2.776062,-0.335877 1.094056,0.189217 1.295713,0.911386 1.344818,1.782179 0.08511,1.522905 0.385637,3.041228 0.01768,4.573299 -0.09297,0.388256 -0.208205,0.58533 -0.613484,0.562415 -1.059355,-0.05827 -2.117401,-0.111959 -3.255324,-0.169576 -0.136839,1.022036 -0.186599,2.040798 0.407242,2.956767 0.576164,0.888471 1.340236,1.066558 2.343939,0.609555 0.879304,-0.399386 1.818189,-0.193145 2.537739,0.558486 -1.642066,1.17197 -4.8018,1.096021 -6.442557,0.0478 z m 10.33559,0.515928 c -0.497595,-0.107376 -1.02269,-0.100829 -1.514393,-0.225882 -1.797893,-0.458312 -2.867724,-2.021811 -2.931233,-3.891724 -0.06089,-1.807714 0.381054,-3.507396 1.116972,-5.074169 0.52444,-1.117626 1.49868,-2.032941 2.336082,-2.983611 0.151243,-0.173504 0.631815,-0.169576 0.917933,-0.09166 0.62134,0.16892 1.236133,0.397422 1.809023,0.688122 0.213443,0.10934 0.43998,0.472062 0.426885,0.707765 -0.04976,0.988644 -0.195765,1.971396 -0.291355,2.958731 -0.109995,1.17197 -0.205586,2.345903 -0.312962,3.589238 -1.071796,0.675028 -2.245729,0.258619 -3.430138,0.09559 -0.37909,1.156911 0.165647,1.970742 0.834128,2.740051 0.551938,0.635744 1.26625,0.664553 1.981872,0.412481 0.430813,-0.151898 0.795498,-0.480573 1.211908,-0.681575 0.18267,-0.08708 0.436706,-0.111305 0.631816,-0.06154 0.468133,0.117197 0.75556,0.422956 0.762107,0.999775 -1.10977,0.567652 -2.21823,1.105841 -3.548645,0.818414 z M 41.468072,66.07933 c -0.813832,0.113268 -1.627663,0.231775 -2.444768,0.335877 -0.286772,0.03798 -0.530332,0.01702 -0.496286,0.464205 0.05631,0.781749 0.01506,1.571355 0.03601,2.358342 0.01833,0.788297 0.06154,1.573975 0.0969,2.434292 -0.605626,0.100174 -1.185718,0.196419 -1.856163,0.307724 -0.05042,-0.914005 -0.0897,-1.784143 -0.149279,-2.651663 -0.06023,-0.874721 -0.138148,-1.749442 -0.214752,-2.696838 -0.595151,-0.03405 -1.14578,-0.08184 -1.697064,-0.09166 -0.516583,-0.01048 -0.882578,-0.166956 -0.834128,-0.760143 0.04125,-0.586639 0.419028,-0.778476 0.961146,-0.746394 0.452419,0.02684 0.909422,0.04256 1.418148,0.06547 -0.190527,-1.829319 -0.405278,-3.552573 -0.539498,-5.281718 -0.09559,-1.249228 -0.143387,-2.506967 -0.112614,-3.758814 0.03208,-1.327795 0.602353,-1.638793 1.808368,-1.09733 1.238097,0.555867 1.173934,0.621995 1.14578,1.948481 -0.04387,2.038179 0.07922,4.079632 0.104757,6.12043 0.0052,0.447836 -0.130291,0.895018 -0.150588,1.345473 -0.0092,0.172849 0.120471,0.352245 0.187908,0.529023 0.09428,-0.141422 0.258619,-0.276951 0.271059,-0.425575 0.03797,-0.430814 0.319509,-0.593187 0.601043,-0.377126 0.694015,0.531642 1.323212,1.149054 1.977289,1.733729 -0.03732,0.07922 -0.07464,0.161719 -0.113268,0.244215 z m 5.32624,4.421401 c -0.252072,0.267786 -0.571581,0.559141 -0.910731,0.638364 -0.603663,0.140767 -1.242681,0.180051 -1.865985,0.166301 -0.722824,-0.01768 -1.186373,-0.530987 -1.323212,-1.159529 -0.364031,-1.64665 -0.640982,-3.310977 -0.918589,-4.975304 -0.08053,-0.4773 -0.06351,-0.974241 -0.04452,-1.460051 0.02161,-0.690087 0.346353,-0.904185 1.005012,-0.692052 0.197075,0.06416 0.383673,0.166957 0.575509,0.251417 1.28131,0.563724 1.253156,0.603663 1.266906,1.966159 0.01375,1.392614 0.141422,2.782609 0.229811,4.173913 0.01047,0.153207 0.0897,0.301831 0.161063,0.534261 1.494098,-1.275417 1.925566,-2.867724 1.920328,-4.629606 -0.0033,-0.410517 -0.14666,-0.824962 -0.122435,-1.230241 0.01768,-0.294629 0.149279,-0.63247 0.343734,-0.843294 0.117197,-0.125054 0.47599,-0.09821 0.695325,-0.03732 0.332603,0.09101 0.636399,0.276297 0.955253,0.414445 0.739192,0.31689 0.904184,0.862936 0.874721,1.650578 -0.05434,1.604092 -0.857698,2.80487 -1.841105,3.954578 -0.35159,0.410517 -0.63247,0.883888 -1.001084,1.277381 z m 9.724726,-2.414649 c -0.900255,0.760798 -1.799202,1.528143 -2.747253,2.224777 -0.356828,0.261238 -0.85377,0.331294 -1.297023,0.493013 -0.290046,1.266905 -0.121125,3.091642 0.575509,5.941688 -0.722823,0.02095 -1.432552,0.06809 -2.142281,0.03863 -0.119816,-0.0059 -0.295939,-0.331294 -0.324747,-0.527059 -0.262547,-1.716051 -0.48843,-3.436685 -0.754905,-5.150772 -0.04321,-0.284808 -0.185289,-0.61021 -0.389566,-0.802701 -0.604317,-0.570926 -0.556521,-1.004358 0.186599,-1.391304 0.138803,-0.07202 0.23112,-0.311652 0.263857,-0.48843 0.311652,-1.541238 0.520511,-3.109974 0.923171,-4.626987 0.443253,-1.666946 1.410292,-3.037299 2.990813,-3.825596 0.422957,-0.211478 1.024655,-0.170885 1.521596,-0.09821 0.467478,0.0694 0.896328,0.394149 1.364461,0.504144 1.272143,0.295284 1.575938,1.309463 1.691826,2.356378 0.227846,2.056512 -0.185944,3.941484 -1.862057,5.35243 z"
       id="path13"
       style="fill:#e51937;fill-opacity:1" /></g></svg>