<?xml version="1.0" encoding="UTF-8" standalone="no"?>
<svg
   xmlns:dc="http://purl.org/dc/elements/1.1/"
   xmlns:cc="http://creativecommons.org/ns#"
   xmlns:rdf="http://www.w3.org/1999/02/22-rdf-syntax-ns#"
   xmlns:svg="http://www.w3.org/2000/svg"
   xmlns="http://www.w3.org/2000/svg"
   height="64"
   width="64"
   xml:space="preserve"
   viewBox="0 0 64 64"
   y="0px"
   x="0px"
   id="Capa_1"
   version="1.1"><metadata
     id="metadata13"><rdf:RDF><cc:Work
         rdf:about=""><dc:format>image/svg+xml</dc:format><dc:type
           rdf:resource="http://purl.org/dc/dcmitype/StillImage" /><dc:title></dc:title></cc:Work></rdf:RDF></metadata><defs
     id="defs11" /><path
     id="path7"
     d="M 32,1.7089844e-6 C 14.327999,1.7089844e-6 0,14.328002 0,32.000002 c 0,17.672 14.327999,32 32,32 17.672001,0 32,-14.328 32,-32 C 64,14.324052 49.672001,1.7089844e-6 32,1.7089844e-6 Z M 47.919999,24.815932 l 0.02395,1.02002 c 0,10.41596 -7.923946,22.41603 -22.416026,22.41603 -4.447968,0 -8.588036,-1.30397 -12.075988,-3.54006 0.616063,0.072 1.243968,0.11198 1.880031,0.11198 3.692034,0 7.088011,-1.26003 9.783976,-3.37203 -3.447951,-0.0639 -6.356025,-2.34399 -7.359989,-5.47194 0.483955,0.092 0.97199,0.13606 1.483972,0.13606 0.720012,0 1.415944,-0.092 2.075955,-0.27198 -3.604007,-0.72804 -6.319972,-3.90796 -6.319972,-7.72394 l 0,-0.1 c 1.063964,0.59198 2.275958,0.94396 3.567953,0.98804 -2.112008,-1.412 -3.504005,-3.82401 -3.504005,-6.55603 0,-1.44397 0.388033,-2.79597 1.063965,-3.95993 3.884011,4.76797 9.692001,7.90394 16.240004,8.23197 -0.136055,-0.57606 -0.203951,-1.18002 -0.203951,-1.79595 0,-4.34796 3.527953,-7.87605 7.879998,-7.87605 2.263985,0 4.312045,0.95594 5.751937,2.48794 1.792003,-0.35606 3.480057,-1.01199 5.004029,-1.91201 -0.588036,1.84003 -1.835951,3.38401 -3.464004,4.35994 1.588053,-0.18803 3.112025,-0.61606 4.524022,-1.24002 -1.055939,1.57595 -2.395961,2.964 -3.935854,4.06796 z"
     style="fill:#55acee;fill-opacity:1" /></svg>